<svg width="313" height="278" viewBox="0 0 313 278" fill="none" xmlns="http://www.w3.org/2000/svg">
<path d="M89.5002 0.756348C88.6639 0.756348 87.8272 1.16037 87.3278 1.96688L82.7314 9.39265C82.0082 9.45186 81.2856 9.52458 80.5675 9.60398L74.6152 3.21756C73.3216 1.8254 71.0131 2.28571 70.3525 4.06763L67.3042 12.2259C66.5979 12.4286 65.8974 12.643 65.1996 12.8627L58.1305 7.77574C56.5891 6.67142 54.4233 7.56697 54.1135 9.43759L52.7117 18.0395C52.0629 18.3757 51.4216 18.7219 50.7812 19.075L42.8496 15.4597C42.0446 15.0912 41.1062 15.1671 40.3711 15.6605C39.6345 16.1505 39.2033 16.9904 39.2371 17.8741L39.5412 26.6022C38.9768 27.0533 38.4175 27.5147 37.8649 27.981L29.3644 25.9778C28.5023 25.776 27.597 26.0333 26.9701 26.6586C26.3428 27.2843 26.0852 28.1908 26.2893 29.0529L28.2916 37.5544C27.8258 38.1059 27.3676 38.6632 26.9166 39.2268L18.1884 38.9236C16.2894 38.8543 14.982 40.8102 15.7731 42.5381L19.3885 50.4706C19.0342 51.1095 18.69 51.7526 18.3539 52.4012L9.75388 53.801C7.88038 54.1072 6.98215 56.2762 8.09106 57.817L13.178 64.8823C12.9567 65.5802 12.743 66.2816 12.5402 66.9879L4.38105 70.0381C2.59865 70.6998 2.14047 73.0083 3.53482 74.3008L9.91739 80.2522C9.83792 80.9703 9.76691 81.6926 9.70608 82.4141L2.2822 87.0105C0.665129 88.007 0.665129 90.357 2.2822 91.3535L9.70608 95.95C9.76686 96.6731 9.83802 97.3948 9.91739 98.1129L3.53482 104.065C2.14682 105.359 2.60385 107.662 4.38105 108.327L12.5402 111.376C12.743 112.082 12.9567 112.784 13.178 113.482L8.09106 120.55C6.97928 122.09 7.87915 124.262 9.75484 124.564L18.3539 125.963C18.6901 126.615 19.0336 127.257 19.3885 127.897L15.7731 135.827C15.405 136.633 15.4809 137.571 15.9739 138.307C16.4673 139.046 17.3082 139.477 18.1884 139.441L26.9127 139.135C27.3672 139.703 27.8252 140.259 28.2916 140.812L26.2893 149.315C26.0865 150.177 26.3416 151.078 26.9701 151.704C27.5936 152.335 28.501 152.586 29.3644 152.383L37.8649 150.381C38.4175 150.851 38.9768 151.308 39.5412 151.757L39.2371 160.487C39.1676 162.385 41.1227 163.692 42.8496 162.901L50.7812 159.286C51.4199 159.641 52.0612 159.985 52.7117 160.322L54.1135 168.918C54.4212 170.79 56.588 171.689 58.1305 170.584L65.1967 165.494C65.8955 165.717 66.5976 165.93 67.3023 166.133L70.3515 174.289C70.6608 175.117 71.3766 175.729 72.2467 175.898C73.1144 176.073 74.0118 175.784 74.6133 175.135L80.5646 168.752C81.2827 168.835 82.0063 168.904 82.7295 168.969L87.3258 176.393C88.3258 178.004 90.6689 178.004 91.6689 176.393L96.2653 168.969C96.9871 168.906 97.7083 168.834 98.4282 168.752L104.379 175.135C104.982 175.784 105.878 176.074 106.745 175.898C107.614 175.727 108.331 175.118 108.64 174.289L111.69 166.133C112.394 165.93 113.096 165.717 113.795 165.494L120.863 170.584C122.405 171.692 124.574 170.791 124.878 168.918L126.28 160.322C126.929 159.985 127.57 159.636 128.211 159.286L136.142 162.901C137.869 163.692 139.824 162.385 139.755 160.487L139.451 151.757C140.015 151.306 140.574 150.851 141.125 150.381L149.626 152.383C150.487 152.589 151.393 152.332 152.018 151.704C152.646 151.078 152.902 150.177 152.699 149.315L150.696 140.812C151.163 140.259 151.623 139.703 152.072 139.135L160.801 139.441C161.685 139.474 162.524 139.045 163.014 138.307C163.508 137.571 163.583 136.633 163.213 135.827L159.6 127.897C159.953 127.257 160.299 126.615 160.633 125.963L169.233 124.564C171.108 124.261 172.008 122.09 170.896 120.55L165.809 113.482C166.029 112.784 166.242 112.082 166.447 111.376L174.604 108.327C175.434 108.016 176.044 107.301 176.213 106.431C176.388 105.563 176.1 104.667 175.45 104.065L169.07 98.1129C169.147 97.3948 169.218 96.6714 169.281 95.95L176.705 91.3535C178.322 90.3574 178.324 88.0075 176.707 87.0105L169.283 82.4141C169.22 81.6925 169.15 80.9723 169.072 80.2522L175.452 74.3008C176.101 73.6959 176.391 72.8001 176.215 71.9333C176.045 71.0642 175.435 70.3468 174.605 70.0381L166.449 66.9879C166.244 66.2837 166.032 65.5816 165.811 64.8823L170.898 57.817C172.009 56.2765 171.11 54.1054 169.235 53.801L160.635 52.4012C160.3 51.7523 159.956 51.1091 159.601 50.4706L163.216 42.5381C163.586 41.7329 163.51 40.7925 163.016 40.0568C162.526 39.319 161.687 38.8901 160.802 38.9236L152.074 39.2268C151.623 38.662 151.164 38.1047 150.695 37.5544L152.701 29.0529C153.139 27.2038 151.477 25.5408 149.627 25.9778L141.127 27.981C140.575 27.5132 140.016 27.0535 139.451 26.6022L139.757 17.8741C139.827 15.9751 137.872 14.668 136.144 15.4597L128.213 19.075C127.573 18.7221 126.93 18.3771 126.282 18.0395L124.88 9.43759C124.573 7.56551 122.406 6.66872 120.865 7.77574L113.794 12.8627C113.097 12.6404 112.395 12.4283 111.691 12.2259L108.642 4.06763C107.983 2.28392 105.673 1.82316 104.38 3.21756L98.4301 9.60398C97.712 9.5246 96.9886 9.45187 96.2672 9.39265L91.6707 1.96688C91.1713 1.16037 90.3365 0.756348 89.5002 0.756348H89.5002ZM102.416 18.2824C104.157 18.2622 105.871 19.091 106.897 20.6336C108.504 23.0409 107.832 26.277 105.395 27.8663C99.5483 31.4722 93.9091 23.0116 99.5795 19.141C100.456 18.5717 101.44 18.2936 102.416 18.2824ZM89.4935 24.882H89.4945C89.7352 24.8836 89.9758 24.8876 90.2164 24.8931L84.7891 47.4678C82.5906 46.9671 80.4325 46.4721 78.3377 45.9513L78.3488 45.8997L64.4151 42.4211L61.7282 53.2117C61.7282 53.2117 69.2243 54.9296 69.0661 55.0361C73.1579 56.0576 73.8971 58.7652 73.7734 60.9119L69.0603 79.8206C69.3423 79.8925 69.7074 79.996 70.1102 80.1571C69.7736 80.0737 69.4143 79.9815 69.0431 79.8923L62.4358 106.38C61.9351 107.623 60.6662 109.488 57.8059 108.78C57.9066 108.926 50.4624 106.947 50.4624 106.947L45.4472 118.512L58.5939 121.79C61.0398 122.403 63.4372 123.044 65.7968 123.649L59.2919 145.864C56.6291 144.442 54.044 142.858 51.5869 141.059C51.587 141.057 51.5868 141.055 51.5869 141.053C51.5961 140.896 51.6017 140.733 51.5998 140.565L51.4278 128.038C51.4241 127.708 51.3863 127.387 51.3188 127.078C51.2516 126.769 51.1545 126.473 51.0309 126.19C51.0303 126.189 51.0297 126.187 51.0291 126.185C51.0284 126.183 51.0272 126.181 51.0254 126.179C50.9014 125.898 50.7515 125.63 50.5779 125.38C50.403 125.128 50.2047 124.895 49.986 124.682C49.7673 124.469 49.5288 124.277 49.2727 124.109C49.0166 123.941 48.7431 123.797 48.4561 123.681C48.1691 123.564 47.8687 123.474 47.5573 123.415C47.2459 123.356 46.9237 123.327 46.5944 123.332L35.5341 123.489L35.1928 123.495C28.6843 113.231 25.2184 101.332 25.1967 89.1782C25.2171 82.5081 26.2752 75.8818 28.3331 69.5371C28.3549 69.5315 28.3429 69.5352 28.3646 69.5297C36.6131 67.4206 37.9956 67.1212 40.3419 66.5378C40.638 66.4641 40.9245 66.3587 41.1977 66.2251C41.744 65.9582 42.2369 65.5799 42.6501 65.1236C42.8567 64.8954 43.0436 64.6475 43.2066 64.3844C43.3696 64.1214 43.509 63.8431 43.6216 63.5535C43.7342 63.2639 43.8197 62.9635 43.875 62.6556C43.9302 62.3478 43.9556 62.0326 43.9467 61.7147C43.9378 61.3969 43.8947 61.0761 43.8148 60.7567L41.1279 50.0263L40.5092 47.5555C52.7205 33.1778 70.6295 24.8879 89.493 24.8813L89.4935 24.882ZM119.022 32.041C133.945 39.5836 145.439 52.1894 150.717 68.3017C150.17 69.1245 149.655 69.8348 149.183 70.5315C142.211 80.4374 141.959 80.7676 141.959 80.7676C141.769 81.0364 141.61 81.3178 141.483 81.608C141.355 81.8983 141.259 82.1975 141.193 82.5002C141.127 82.8028 141.091 83.1091 141.085 83.4153C141.079 83.7214 141.101 84.0277 141.153 84.3284C141.205 84.6292 141.285 84.9246 141.394 85.211C141.502 85.4974 141.638 85.774 141.802 86.0371C142.129 86.5634 142.565 87.0345 143.103 87.414L152.144 93.787L153.544 94.7738C151.881 113.805 141.842 131.112 126.146 142.003C126.143 142.002 126.139 141.999 126.135 141.997C122.106 140.319 119.495 139.151 117.878 138.395C117.83 138.373 117.797 138.357 117.751 138.335C116.27 137.639 115.615 137.286 115.615 137.286C115.314 137.152 115.008 137.052 114.698 136.983C114.389 136.915 114.077 136.877 113.767 136.871C113.457 136.866 113.15 136.89 112.848 136.943C112.548 136.996 112.254 137.078 111.97 137.187C111.966 137.188 111.963 137.188 111.961 137.19C111.678 137.299 111.405 137.435 111.147 137.596C110.887 137.758 110.642 137.946 110.416 138.157C110.192 138.367 109.987 138.6 109.804 138.855C109.8 138.861 109.796 138.866 109.793 138.872C109.611 139.127 109.451 139.404 109.318 139.702L104.824 149.81L103.927 151.827C99.1939 152.92 94.3518 153.473 89.4937 153.476C88.9759 153.475 88.4632 153.426 87.9466 153.413L94.0576 130.727C111.285 133.987 124.24 132.672 129.693 117.09C134.087 104.544 129.475 97.3066 120.41 92.5874C127.011 91.0652 131.984 86.7234 133.31 77.754H133.311C135.144 65.5014 125.815 58.9145 113.059 54.5205L119.022 32.041ZM108.199 32.2332L103.065 51.5654C100.409 50.9036 97.6813 50.2784 94.9706 49.6598L98.0754 35.5598C98.2959 35.6976 98.5213 35.8277 98.759 35.927C99.0377 36.0433 99.326 36.132 99.6206 36.1937C99.6298 36.1955 99.6372 36.1974 99.6463 36.1993C99.9409 36.2594 100.241 36.2929 100.543 36.2968C100.849 36.3005 101.157 36.2752 101.461 36.2193H101.462C101.767 36.1634 102.068 36.0766 102.362 35.9592H102.363C102.657 35.8417 102.944 35.6927 103.219 35.5117L108.199 32.2332ZM31.7673 52.5427C33.9727 52.5371 36.0354 53.902 36.7902 56.0749C38.8595 62.5653 29.1453 65.829 26.7722 59.4406C25.8304 56.7139 27.3088 53.7499 30.0729 52.8238C30.6345 52.6348 31.2052 52.5442 31.7673 52.5427ZM92.2483 61.593C97.9516 63.0145 116.319 65.6675 113.352 77.5719C110.504 88.9843 92.9211 83.1864 87.2178 81.7649L92.2483 61.593ZM154.789 76.9571C155.762 76.9534 156.797 77.2454 157.826 77.9267C160.212 79.5864 160.781 82.8421 159.097 85.1947C157.414 87.5511 154.116 88.1172 151.725 86.4607C147.181 83.138 150.345 76.9726 154.789 76.9571ZM84.6801 91.9454C91.5287 93.6547 113.49 97.0393 110.227 110.124C107.104 122.67 85.9808 115.887 79.1322 114.186L84.6801 91.9454ZM75.8487 126.344C78.6054 127.093 81.2813 127.782 83.8998 128.433L77.4704 152.279C74.5631 151.722 71.6977 150.988 68.9 150.038L75.8487 126.344ZM40.0135 129.054C46.9078 129.118 47.0506 139.244 40.1608 139.497C37.242 139.538 34.8435 137.235 34.8051 134.354C34.7627 131.472 37.0931 129.101 40.0135 129.054H40.0135ZM116.531 144.416C119.934 144.384 123.373 147.574 121.63 151.695C120.444 154.327 117.319 155.511 114.653 154.338C111.984 153.167 110.779 150.084 111.961 147.448C112.975 145.334 114.748 144.433 116.531 144.416Z" fill="#008DE4"/>
<path d="M309.668 169.958L301.517 166.928C301.314 166.236 301.104 165.546 300.886 164.858L305.948 157.795C306.462 157.077 306.57 156.146 306.229 155.334C306.063 154.933 305.797 154.582 305.457 154.313C305.116 154.044 304.713 153.867 304.284 153.799L295.722 152.423C295.384 151.775 295.039 151.132 294.685 150.492L298.266 142.594C298.445 142.2 298.521 141.765 298.485 141.333C298.449 140.901 298.304 140.485 298.062 140.124C297.821 139.764 297.491 139.472 297.104 139.275C296.718 139.078 296.288 138.983 295.854 138.999L287.182 139.322C286.728 138.754 286.265 138.193 285.794 137.639L287.765 129.184C287.865 128.762 287.855 128.321 287.735 127.904C287.616 127.487 287.392 127.107 287.084 126.801C286.777 126.494 286.397 126.271 285.98 126.154C285.562 126.036 285.121 126.027 284.7 126.129L276.237 128.139C275.686 127.676 275.128 127.222 274.562 126.777L274.852 118.082C274.867 117.648 274.77 117.218 274.572 116.832C274.374 116.446 274.08 116.117 273.719 115.877C273.357 115.636 272.941 115.492 272.508 115.458C272.076 115.424 271.641 115.501 271.247 115.682L263.341 119.308C262.71 118.959 262.074 118.62 261.434 118.291L260.019 109.708C259.949 109.28 259.771 108.877 259.501 108.537C259.232 108.197 258.88 107.932 258.479 107.766C258.077 107.601 257.641 107.541 257.21 107.593C256.779 107.644 256.369 107.805 256.018 108.06L248.984 113.147C248.29 112.928 247.593 112.717 246.895 112.515L243.837 104.391C243.684 103.986 243.43 103.626 243.099 103.347C242.768 103.067 242.371 102.876 241.946 102.792C241.521 102.709 241.081 102.735 240.669 102.869C240.257 103.002 239.886 103.239 239.591 103.556L233.685 109.912C232.96 109.832 232.235 109.762 231.508 109.702L226.929 102.336C226.701 101.967 226.382 101.662 226.003 101.451C225.624 101.239 225.197 101.129 224.763 101.13C224.329 101.13 223.902 101.242 223.524 101.455C223.145 101.667 222.828 101.973 222.601 102.344L218.044 109.746C217.328 109.81 216.607 109.881 215.891 109.964L209.946 103.616C209.65 103.3 209.278 103.064 208.865 102.932C208.452 102.8 208.013 102.776 207.588 102.861C207.163 102.947 206.767 103.139 206.438 103.42C206.108 103.702 205.856 104.063 205.705 104.469L202.675 112.622C201.981 112.821 201.289 113.034 200.603 113.253L193.538 108.187C193.186 107.933 192.775 107.774 192.344 107.725C191.913 107.676 191.476 107.737 191.076 107.904C190.675 108.072 190.324 108.338 190.056 108.679C189.788 109.021 189.612 109.425 189.544 109.853L188.168 118.417C187.518 118.753 186.877 119.1 186.239 119.452L178.338 115.872C177.943 115.694 177.509 115.62 177.077 115.656C176.646 115.692 176.23 115.838 175.87 116.079C175.511 116.321 175.218 116.65 175.021 117.036C174.824 117.421 174.728 117.851 174.743 118.284L175.062 126.958C174.495 127.414 173.936 127.878 173.38 128.348L164.926 126.375C164.504 126.276 164.064 126.286 163.647 126.406C163.23 126.525 162.851 126.75 162.546 127.058C161.922 127.681 161.667 128.585 161.873 129.441L163.884 137.904C163.421 138.456 162.966 139.016 162.518 139.579L153.825 139.292C153.391 139.278 152.961 139.375 152.576 139.574C152.19 139.772 151.861 140.066 151.621 140.426C151.38 140.787 151.235 141.204 151.201 141.637C151.167 142.069 151.244 142.504 151.426 142.898L155.05 150.806C154.703 151.436 154.365 152.071 154.035 152.709L145.453 154.126C145.025 154.196 144.622 154.374 144.282 154.644C143.942 154.914 143.677 155.266 143.512 155.667C143.347 156.068 143.287 156.505 143.338 156.936C143.389 157.367 143.55 157.778 143.805 158.129L148.893 165.164C148.672 165.858 148.461 166.554 148.26 167.253L140.138 170.308C139.732 170.461 139.372 170.715 139.092 171.046C138.812 171.377 138.621 171.774 138.538 172.199C138.454 172.624 138.48 173.064 138.614 173.477C138.748 173.889 138.985 174.26 139.303 174.555L145.657 180.456C145.578 181.181 145.506 181.907 145.447 182.637L138.081 187.216C137.712 187.444 137.407 187.763 137.197 188.143C136.986 188.522 136.876 188.949 136.877 189.383C136.878 189.817 136.99 190.244 137.203 190.622C137.416 191 137.722 191.318 138.092 191.544L145.491 196.102C145.555 196.819 145.627 197.539 145.71 198.255L139.363 204.2C139.046 204.496 138.81 204.868 138.677 205.281C138.544 205.693 138.52 206.133 138.605 206.559C138.69 206.984 138.883 207.38 139.165 207.709C139.447 208.039 139.809 208.291 140.216 208.441L148.367 211.471C148.568 212.165 148.779 212.856 148.997 213.541L143.935 220.606C143.682 220.958 143.524 221.369 143.475 221.8C143.426 222.23 143.487 222.666 143.654 223.066C143.82 223.467 144.086 223.817 144.427 224.086C144.767 224.354 145.17 224.531 145.598 224.6L154.162 225.977C154.498 226.627 154.845 227.269 155.198 227.907L151.619 235.806C151.439 236.201 151.364 236.636 151.399 237.068C151.435 237.5 151.581 237.916 151.822 238.276C152.064 238.636 152.394 238.929 152.781 239.125C153.168 239.322 153.598 239.416 154.032 239.399L162.702 239.077C163.158 239.648 163.621 240.208 164.093 240.763L162.119 249.215C162.02 249.637 162.031 250.078 162.15 250.495C162.27 250.912 162.494 251.292 162.802 251.597C163.429 252.221 164.333 252.477 165.186 252.27L173.645 250.258C174.2 250.724 174.756 251.176 175.32 251.624L175.035 260.32C175.006 261.202 175.432 262.031 176.169 262.519C176.901 263.012 177.836 263.08 178.64 262.713L186.546 259.089C187.178 259.439 187.814 259.775 188.453 260.103L189.87 268.687C189.94 269.115 190.118 269.518 190.388 269.857C190.657 270.197 191.009 270.462 191.41 270.627C191.811 270.792 192.248 270.852 192.679 270.8C193.109 270.749 193.52 270.588 193.87 270.333L200.905 265.248C201.598 265.469 202.293 265.679 202.994 265.88L206.051 273.998C206.204 274.404 206.458 274.764 206.789 275.043C207.12 275.323 207.517 275.514 207.942 275.598C208.367 275.682 208.807 275.656 209.219 275.523C209.632 275.39 210.003 275.153 210.299 274.837L216.199 268.479C216.925 268.56 217.652 268.63 218.38 268.691L222.959 276.054C223.423 276.801 224.243 277.26 225.126 277.254C225.559 277.254 225.986 277.143 226.364 276.931C226.742 276.719 227.059 276.414 227.285 276.044L231.845 268.644C232.562 268.584 233.282 268.51 234 268.43L239.945 274.777C240.242 275.093 240.614 275.328 241.026 275.46C241.439 275.592 241.878 275.616 242.303 275.531C242.728 275.445 243.123 275.253 243.453 274.972C243.783 274.691 244.035 274.33 244.186 273.924L247.216 265.773C247.909 265.571 248.599 265.359 249.286 265.138L256.349 270.2C257.065 270.716 257.996 270.823 258.808 270.482C259.209 270.316 259.56 270.05 259.829 269.71C260.098 269.369 260.275 268.966 260.343 268.537L261.72 259.977C262.368 259.64 263.012 259.294 263.65 258.939L271.55 262.522C271.945 262.7 272.379 262.775 272.811 262.739C273.243 262.703 273.659 262.557 274.019 262.315C274.379 262.073 274.671 261.743 274.868 261.357C275.064 260.971 275.159 260.54 275.143 260.107L274.825 251.438C275.392 250.983 275.95 250.515 276.507 250.048L284.96 252.02C285.382 252.119 285.823 252.109 286.24 251.99C286.657 251.871 287.037 251.647 287.343 251.34C287.649 251.032 287.871 250.652 287.989 250.234C288.106 249.817 288.115 249.376 288.014 248.955L286.003 240.49C286.465 239.939 286.922 239.385 287.368 238.819L296.061 239.105C296.494 239.121 296.924 239.025 297.31 238.826C297.696 238.628 298.024 238.334 298.263 237.972C298.754 237.237 298.826 236.307 298.459 235.506L294.835 227.596C295.182 226.965 295.521 226.332 295.849 225.689L304.431 224.274C304.859 224.205 305.262 224.027 305.602 223.757C305.941 223.487 306.206 223.134 306.37 222.733C306.707 221.917 306.597 220.986 306.078 220.272L300.992 213.239C301.211 212.544 301.424 211.85 301.622 211.147L309.745 208.093C310.151 207.941 310.511 207.687 310.791 207.356C311.072 207.025 311.263 206.628 311.347 206.203C311.43 205.777 311.404 205.337 311.27 204.925C311.135 204.513 310.898 204.142 310.58 203.847L304.225 197.945C304.303 197.22 304.374 196.493 304.435 195.764L311.8 191.185C312.549 190.718 313.006 189.901 313 189.018C313 188.584 312.889 188.158 312.677 187.78C312.465 187.402 312.16 187.084 311.79 186.858L304.392 182.299C304.327 181.582 304.254 180.862 304.174 180.145L310.52 174.201C310.838 173.905 311.074 173.533 311.207 173.12C311.339 172.707 311.364 172.267 311.279 171.842C311.194 171.417 311.001 171.021 310.719 170.691C310.437 170.361 310.076 170.11 309.669 169.959L309.668 169.958ZM273.242 239.847C271.853 239.826 270.53 239.255 269.562 238.259C268.594 237.263 268.061 235.924 268.08 234.536C268.088 233.849 268.231 233.17 268.501 232.538C268.771 231.907 269.164 231.335 269.655 230.855C270.147 230.375 270.729 229.997 271.367 229.742C272.005 229.488 272.687 229.361 273.374 229.371C274.762 229.39 276.086 229.96 277.054 230.955C278.022 231.949 278.556 233.288 278.537 234.676C278.52 236.064 277.952 237.388 276.959 238.357C275.967 239.327 274.629 239.863 273.242 239.847ZM267.429 223.683C266.803 223.675 266.181 223.791 265.599 224.023C265.017 224.256 264.487 224.601 264.038 225.038C263.59 225.476 263.232 225.998 262.985 226.574C262.739 227.15 262.608 227.769 262.601 228.396L262.442 240.923C255.005 246.277 246.507 249.975 237.52 251.768C228.336 253.626 218.856 253.451 209.747 251.255L204.76 239.762C204.512 239.187 204.152 238.667 203.702 238.231C203.252 237.795 202.721 237.452 202.138 237.222C201.556 236.992 200.933 236.879 200.307 236.889C199.681 236.9 199.063 237.034 198.488 237.283L188.343 241.692C185.965 240.059 183.699 238.269 181.562 236.332L233.152 225.959C233.736 225.842 234.104 225.658 233.997 225.127L230.328 206.877C230.221 206.346 229.811 206.319 229.227 206.436L214.138 209.47L211.813 197.902L228.132 194.621C229.621 194.322 236.182 193.445 239.917 201.306C241.077 203.721 244.165 211.715 245.672 214.17C247.239 216.948 252.383 222.093 256.591 221.247L282.299 216.078C282.591 216.019 282.896 215.924 283.212 215.798C281.916 218.579 280.423 221.264 278.745 223.833L267.429 223.683ZM199.374 254.437C198.744 254.711 198.066 254.858 197.379 254.87C196.692 254.882 196.009 254.758 195.37 254.505C194.731 254.253 194.148 253.877 193.654 253.399C193.161 252.921 192.766 252.351 192.493 251.72C191.939 250.447 191.913 249.005 192.421 247.713C192.929 246.42 193.929 245.382 195.202 244.827C196.47 244.311 197.889 244.312 199.156 244.829C200.423 245.346 201.438 246.339 201.983 247.594C202.528 248.849 202.56 250.268 202.072 251.547C201.585 252.826 200.617 253.863 199.374 254.437ZM163.848 179.012C164.65 180.146 164.969 181.551 164.735 182.92C164.502 184.288 163.734 185.508 162.602 186.312C162.041 186.709 161.407 186.991 160.737 187.143C160.067 187.295 159.374 187.313 158.697 187.197C158.019 187.081 157.372 186.832 156.791 186.465C156.21 186.098 155.707 185.62 155.311 185.059C154.509 183.925 154.19 182.52 154.424 181.151C154.657 179.782 155.424 178.562 156.557 177.759C157.118 177.362 157.751 177.079 158.421 176.928C159.091 176.776 159.785 176.757 160.462 176.874C161.139 176.99 161.787 177.239 162.368 177.606C162.949 177.973 163.452 178.45 163.848 179.012ZM160.7 194.48L170.758 187.351C171.79 186.619 172.49 185.507 172.703 184.259C172.916 183.011 172.625 181.73 171.893 180.697L168.584 176.01L177.531 174.212L185.638 214.538L167.589 218.166C164.856 212.856 162.875 207.191 161.702 201.335C161.241 199.043 160.91 196.753 160.7 194.48H160.7ZM208.381 180.819L205.991 168.932L227.296 164.649C228.396 164.428 235.322 164.359 236.325 169.346C237.157 173.487 232.34 176 228.133 176.846L208.381 180.817L208.381 180.819ZM287.957 175.95C288.274 177.528 288.53 179.1 288.726 180.672L282.249 181.974C281.601 182.105 281.426 182.583 281.554 183.218L282.152 186.192C283.559 193.194 279.918 195.51 276.536 196.593C273.316 197.627 269.312 196.61 268.456 194.685C264.315 184.145 260.607 182.462 254.682 179.456C260.218 174.15 265.627 166.877 264.027 158.919C262.299 150.325 255.32 146.097 250.771 144.25C244.39 141.669 238.003 142.179 236.32 142.517L169.336 155.985C176.382 144.021 187.248 134.365 200.646 128.952L210.207 135.648C210.72 136.007 211.299 136.262 211.911 136.397C212.522 136.533 213.154 136.546 213.771 136.437C214.388 136.327 214.977 136.098 215.505 135.76C216.032 135.423 216.488 134.985 216.847 134.471L223.982 124.245C243.187 123.969 261.176 132.342 273.387 146.335L270.085 161.211C269.811 162.446 270.039 163.74 270.718 164.808C271.396 165.876 272.471 166.632 273.706 166.909L286.389 169.74C287.006 171.767 287.532 173.834 287.957 175.95H287.957ZM207.129 120.318C207.522 119.754 208.022 119.274 208.601 118.904C209.18 118.534 209.826 118.282 210.502 118.162C211.179 118.042 211.872 118.057 212.543 118.205C213.213 118.354 213.848 118.633 214.411 119.027C215.549 119.824 216.323 121.04 216.565 122.408C216.807 123.775 216.496 125.183 215.701 126.322C215.308 126.885 214.808 127.366 214.229 127.736C213.65 128.106 213.004 128.358 212.327 128.478C211.65 128.598 210.957 128.583 210.286 128.434C209.615 128.285 208.98 128.005 208.418 127.611C207.281 126.814 206.507 125.598 206.266 124.231C206.024 122.864 206.334 121.457 207.129 120.318ZM276.856 156.55C277.005 155.88 277.284 155.245 277.678 154.682C278.072 154.119 278.573 153.64 279.152 153.271C279.732 152.902 280.378 152.651 281.055 152.532C281.731 152.413 282.425 152.429 283.095 152.579C284.45 152.882 285.629 153.711 286.374 154.883C287.118 156.055 287.367 157.474 287.066 158.83C286.918 159.501 286.639 160.136 286.245 160.699C285.851 161.262 285.35 161.742 284.77 162.111C284.19 162.48 283.544 162.731 282.867 162.85C282.19 162.969 281.496 162.953 280.826 162.803C279.471 162.499 278.293 161.669 277.549 160.497C276.805 159.325 276.556 157.906 276.856 156.55H276.856Z" fill="#F5680F"/>
<path d="M70.2391 158.813C79.8054 161.376 89.282 161.968 98.6691 160.59C108.056 159.212 116.828 156.154 124.984 151.417C133.14 146.681 140.176 140.593 146.091 133.155C152.006 125.716 156.238 117.24 158.788 107.726C161.337 98.2111 161.91 88.7541 160.507 79.3546C159.103 69.9551 156.039 61.1615 151.315 52.9738C146.592 44.786 140.51 37.7485 133.069 31.8613C125.629 25.974 117.126 21.7487 107.559 19.1855C98.0509 16.6377 88.603 16.053 79.2159 17.4314C69.8288 18.8097 61.0717 21.871 52.9443 26.6154C44.8172 31.3597 37.796 37.451 31.8807 44.8894C25.9655 52.3279 21.7332 60.8044 19.1838 70.3188C16.6344 79.8333 16.0615 89.2903 17.465 98.6897C18.8685 108.089 21.9178 116.879 26.6127 125.059C31.3078 133.239 37.3755 140.273 44.8158 146.16C52.2561 152.047 60.7305 156.265 70.2391 158.813Z" fill="#008DE4"/>
<path fill-rule="evenodd" clip-rule="evenodd" d="M80.5572 50.2549L111.091 58.4364C137.92 65.6253 138.759 81.5156 129.392 101.055C123.138 114.187 113.901 123.031 101.861 125.117C96.4525 126.082 91.5121 126.099 80.8003 123.229L50.3669 115.074L56.7153 101.593L83.4948 108.768C99.5991 113.137 105.731 107.269 109.47 101.726C110.888 99.638 114.581 93.063 115.758 88.8718C118.044 80.7397 115.354 74.7613 101.789 71.1266L74.2722 63.6998L80.5572 50.2549ZM48.1273 79.2857C49.7267 76.3248 52.3034 71.5546 60.2265 73.6776L91.4608 82.0468C91.4608 82.0468 90.7044 83.6682 88.6035 87.5044C88.5865 87.536 88.5693 87.5679 88.552 87.5999C86.9526 90.5608 84.3759 95.331 76.4528 93.208L45.2185 84.8388C45.2185 84.8388 45.9748 83.2174 48.0757 79.3811C48.0928 79.3495 48.11 79.3177 48.1273 79.2857Z" fill="white"/>
</svg>
