<svg width="359.854" height="359.857" viewBox="0 0 95.211 95.212" xmlns="http://www.w3.org/2000/svg"><path d="m330.353 103.349-3.434-3.209c.043-.387.082-.775.117-1.164l3.995-2.468a1.37 1.37 0 0 0 .653-1.169 1.37 1.37 0 0 0-.65-1.17l-3.983-2.47a51.065 51.065 0 0 0-.115-1.178l3.43-3.193a1.375 1.375 0 0 0-.454-2.295l-4.392-1.646a39.007 39.007 0 0 0-.342-1.128l2.744-3.806c.28-.386.34-.89.157-1.33a1.368 1.368 0 0 0-1.049-.832l-4.639-.76a37.132 37.132 0 0 0-.551-1.028l1.955-4.276a1.375 1.375 0 0 0-1.298-1.947l-4.698.16a39.484 39.484 0 0 0-.74-.904l1.083-4.574a1.373 1.373 0 0 0-1.652-1.656l-4.568 1.072c-.3-.254-.603-.504-.91-.75l.167-4.688a1.376 1.376 0 0 0-1.943-1.301l-4.269 1.94c-.345-.191-.692-.377-1.042-.558l-.75-4.628a1.372 1.372 0 0 0-2.159-.898l-3.814 2.743c-.37-.118-.745-.232-1.12-.34l-1.642-4.404a1.375 1.375 0 0 0-2.293-.458l-3.209 3.435a41.082 41.082 0 0 0-1.164-.117l-2.469-3.998a1.373 1.373 0 0 0-2.338 0l-2.47 3.983a46.61 46.61 0 0 0-1.178.115l-3.195-3.431a1.378 1.378 0 0 0-2.295.454l-1.647 4.392c-.378.11-.753.224-1.129.343l-3.804-2.745a1.37 1.37 0 0 0-1.33-.155 1.37 1.37 0 0 0-.832 1.049l-.76 4.639c-.345.178-.689.363-1.03.55l-4.275-1.953a1.38 1.38 0 0 0-1.336.107 1.373 1.373 0 0 0-.611 1.191l.16 4.699c-.304.242-.605.488-.903.738l-4.575-1.081a1.374 1.374 0 0 0-1.655 1.653l1.072 4.568c-.255.3-.505.603-.75.91l-4.687-.168a1.376 1.376 0 0 0-1.301 1.944l1.94 4.266c-.19.345-.378.692-.56 1.044l-4.627.75a1.373 1.373 0 0 0-.896 2.16l2.74 3.814c-.117.37-.23.745-.339 1.12l-4.403 1.642a1.373 1.373 0 0 0-.458 2.293l3.434 3.208c-.045.388-.083.777-.117 1.164l-3.996 2.469c-.87.536-.87 1.8-.003 2.338l3.984 2.47c.032.394.072.787.115 1.179l-3.43 3.193a1.374 1.374 0 0 0 .455 2.295l4.39 1.645c.11.38.223.755.343 1.13l-2.744 3.804c-.28.387-.339.89-.156 1.33.183.442.58.758 1.049.832l4.637.76c.18.347.363.688.551 1.03l-1.953 4.277c-.198.433-.159.935.107 1.332a1.37 1.37 0 0 0 1.192.611l4.698-.16c.242.306.489.606.74.903l-1.082 4.576a1.373 1.373 0 0 0 1.652 1.654l4.568-1.071c.3.254.602.504.91.75l-.167 4.686a1.378 1.378 0 0 0 1.944 1.302l4.267-1.941c.345.191.693.378 1.043.56l.75 4.625c.076.47.39.869.83 1.05.44.184.944.126 1.33-.154l3.815-2.74c.37.12.744.232 1.12.342l1.642 4.403a1.376 1.376 0 0 0 2.293.458l3.209-3.433c.387.043.775.08 1.164.114l2.468 3.995a1.372 1.372 0 0 0 2.338.003l2.47-3.982c.393-.033.786-.072 1.178-.116l3.194 3.432c.697.747 1.936.501 2.295-.456l1.646-4.39c.378-.108.754-.225 1.129-.342l3.805 2.744c.828.6 1.997.117 2.16-.893l.761-4.64c.346-.178.689-.36 1.029-.549l4.275 1.953c.433.2.939.16 1.335-.106.398-.264.627-.713.611-1.19l-.16-4.699c.305-.242.606-.487.903-.74l4.575 1.083c.463.11.95-.028 1.287-.365a1.37 1.37 0 0 0 .367-1.288l-1.071-4.567c.254-.3.504-.603.75-.912l4.686.169a1.374 1.374 0 0 0 1.301-1.944l-1.94-4.267c.19-.345.377-.692.56-1.043l4.626-.75a1.37 1.37 0 0 0 1.05-.83c.184-.44.126-.944-.154-1.33l-2.74-3.814c.117-.371.231-.746.34-1.12l4.403-1.642a1.373 1.373 0 0 0 .46-2.293zm-32.722 27.266a2.832 2.832 0 0 1-1.467-3.724 2.823 2.823 0 0 1 3.715-1.473 2.83 2.83 0 0 1-2.248 5.197zm9.981-9.916a34.92 34.92 0 0 1-3.901 3.076l-5.612-2.431a2.576 2.576 0 0 0-3.39 1.344l-2.688 6.215a34.653 34.653 0 0 1-14.687.217 34.686 34.686 0 0 1-13.743-6.04l-.093-6.77a2.575 2.575 0 0 0-2.612-2.543l-5.978.086a34.68 34.68 0 0 1-2.265-4.086m5.112 12.74a2.826 2.826 0 0 1-2.866-2.789 2.833 2.833 0 0 1 2.787-2.873c3.689.034 3.766 5.524.08 5.661zm-2.007-45.014a2.832 2.832 0 0 1-2.142 3.38 2.825 2.825 0 0 1-3.375-2.143 2.832 2.832 0 0 1 2.142-3.38 2.825 2.825 0 0 1 3.375 2.143zm-4.792 7.058 6.5-1.46a2.58 2.58 0 0 0 1.953-3.082l-.674-3.027c5.751-2.852 28.852 11.5-9.277 20.816a34.838 34.838 0 0 1 .57-9.62 35.23 35.23 0 0 1 .928-3.627zm12.325-17.399s13.435-7.05 21.244-6.96l3.374 5.331a2.574 2.574 0 0 0 3.556.796l5.688-3.614c9.634 3.863 16.862 11.785 20.037 21.306l-4.745 6.731a2.584 2.584 0 0 0 .619 3.596l5.736 4.053a36.116 36.116 0 0 1-1.112 5.939m-28.122-47.093a2.824 2.824 0 0 1 3.9.873 2.833 2.833 0 0 1-.875 3.906 2.822 2.822 0 0 1-3.9-.874 2.834 2.834 0 0 1 .875-3.905zm27.227 32.591a2.824 2.824 0 0 1 3.938-.68 2.832 2.832 0 0 1 .678 3.944 2.824 2.824 0 0 1-3.94.681 2.835 2.835 0 0 1-.676-3.945z" style="fill:#fff;fill-opacity:1;stroke-width:.909418" transform="translate(201.733 209.108)"/><path style="fill:#f7931a;fill-opacity:1;stroke-width:.913143" d="M-158.176-209.107a1.371 1.371 0 0 0-1.282.763l-2.116 4.215c-.385.068-.77.14-1.154.219l-3.512-3.153a1.368 1.368 0 0 0-1.31-.299 1.37 1.37 0 0 0-.942.957l-1.257 4.55c-.366.14-.73.288-1.09.438l-4.057-2.409a1.38 1.38 0 0 0-2.082 1.088l-.342 4.695c-.336.212-.667.43-.995.65l-4.44-1.565a1.383 1.383 0 0 0-1.83 1.471l.58 4.675c-.286.273-.567.55-.845.83l-4.663-.67a1.376 1.376 0 0 0-1.255.48 1.375 1.375 0 0 0-.252 1.32l1.483 4.48c-.225.32-.444.645-.66.97l-4.713.253a1.385 1.385 0 0 0-1.139.716c-.23.42-.226.93.01 1.345l2.33 4.106c-.158.356-.31.715-.46 1.076l-4.572 1.168a1.38 1.38 0 0 0-.704 2.242l3.08 3.565c-.087.385-.168.77-.244 1.158l-4.248 2.032a1.381 1.381 0 0 0-.253 2.336l3.712 2.892c-.01.395-.013.792-.011 1.189l-3.77 2.821a1.379 1.379 0 0 0 .21 2.34l4.213 2.117c.068.384.141.77.219 1.153l-3.153 3.511a1.378 1.378 0 0 0 .66 2.253l4.548 1.257c.141.366.288.73.438 1.09l-2.406 4.056a1.381 1.381 0 0 0 1.086 2.082l4.695.343c.212.335.43.667.65.995l-1.565 4.439a1.38 1.38 0 0 0 1.472 1.829l4.673-.58c.273.287.55.567.83.846l-.67 4.662c-.07.474.112.949.48 1.256.368.308.87.404 1.32.252l4.48-1.484c.321.226.643.444.969.66l.253 4.715c.026.478.295.906.716 1.136.419.232.927.225 1.344-.012l4.106-2.33c.358.16.717.313 1.078.46l1.168 4.574a1.38 1.38 0 0 0 2.24.703l3.565-3.078c.385.087.77.168 1.158.243l2.033 4.246a1.384 1.384 0 0 0 2.337.255l2.891-3.714c.397.01.793.014 1.19.012l2.82 3.768c.286.382.75.59 1.227.546a1.373 1.373 0 0 0 1.111-.755l2.118-4.214c.385-.066.771-.14 1.156-.216l3.511 3.152a1.381 1.381 0 0 0 2.253-.659l1.256-4.55c.365-.141.729-.288 1.09-.44l4.055 2.408c.411.245.92.259 1.343.036.425-.22.704-.645.739-1.122l.343-4.693c.334-.213.667-.43.995-.652l4.44 1.567a1.382 1.382 0 0 0 1.829-1.474l-.579-4.671c.286-.273.565-.552.844-.83l4.663.67a1.38 1.38 0 0 0 1.507-1.8l-1.483-4.482c.224-.32.445-.641.66-.968l4.712-.252c.479-.025.91-.295 1.138-.716.231-.42.226-.926-.01-1.342l-2.33-4.107c.159-.357.313-.716.46-1.078l4.573-1.167c.464-.117.834-.467.976-.924a1.375 1.375 0 0 0-.273-1.317l-3.078-3.564c.086-.386.168-.771.242-1.16l4.248-2.032a1.38 1.38 0 0 0 .253-2.334l-3.712-2.894c.008-.395.013-.791.012-1.189l3.767-2.82c.383-.287.592-.75.547-1.228a1.373 1.373 0 0 0-.755-1.11l-4.213-2.12c-.069-.384-.142-.77-.219-1.153l3.153-3.512a1.378 1.378 0 0 0-.659-2.252l-4.548-1.257a54.531 54.531 0 0 0-.438-1.09l2.405-4.055c.245-.412.26-.921.037-1.344a1.375 1.375 0 0 0-1.123-.739l-4.694-.343a51.33 51.33 0 0 0-.65-.995l1.565-4.437a1.38 1.38 0 0 0-1.472-1.83l-4.673.579a39.1 39.1 0 0 0-.83-.844l.671-4.664c.07-.473-.113-.95-.48-1.256a1.373 1.373 0 0 0-1.32-.252l-4.482 1.483c-.32-.224-.642-.444-.969-.658l-.25-4.714a1.38 1.38 0 0 0-2.062-1.128l-4.104 2.33a39.772 39.772 0 0 0-1.08-.461l-1.166-4.574a1.38 1.38 0 0 0-2.24-.703l-3.565 3.079a50.075 50.075 0 0 0-1.158-.244l-2.034-4.249a1.382 1.382 0 0 0-2.335-.252l-2.895 3.712a43.13 43.13 0 0 0-1.187-.01l-2.82-3.77a1.363 1.363 0 0 0-1.058-.555zm.678 8.751c.7-.038 1.415.179 1.99.662a2.801 2.801 0 0 1 .32 3.98c-2.486 2.757-6.695-.775-4.342-3.643a2.866 2.866 0 0 1 2.032-.999zm6.328 4.241c1.619.139 3.214.378 4.774.716l-2.714 10.96a250.01 250.01 0 0 0-4.79-1.127l2.59-10.384.02-.023zm-12.158 1.112.009.009a142.161 142.161 0 0 1 3.396 2.861c.002.002.007.006.007.008.006.007.012.011.019.017.67.586.965.858 1.019.908l-1.047 4.336c-1.301-.296-2.578-.589-3.818-.897l.007-.03-8.245-2.06-1.59 6.386s4.436 1.017 4.342 1.08c2.422.604 2.86 2.207 2.786 3.477l-2.789 11.189c.167.042.383.104.621.2-.199-.05-.412-.105-.631-.158l-3.91 15.675c-.296.735-1.047 1.839-2.74 1.42.06.087-4.345-1.085-4.345-1.085l-2.968 6.844 7.78 1.939c1.447.363 2.866.743 4.262 1.1l-1.205 4.879-4.538 1.4-.176.054a34.75 34.75 0 0 1-10.396-16.282 34.75 34.75 0 0 1-1.355-10.663l.015-.009c3.958-2.346 4.63-2.711 5.758-3.37.142-.083.275-.182.396-.293a2.61 2.61 0 0 0 .586-.791 2.765 2.765 0 0 0 .266-.962 2.592 2.592 0 0 0-.11-1.003 2.418 2.418 0 0 0-.215-.477l-3.023-5.158-.695-1.187a34.748 34.748 0 0 1 21.963-19.199l.002-.004c.187-.053.374-.105.561-.155zm22.858 1.434c5.966 2.426 11.157 6.457 14.925 11.949-.158.51-.318.957-.457 1.39-2.112 6.196-2.192 6.405-2.192 6.405a2.595 2.595 0 0 0-.135 1.015 2.592 2.592 0 0 0 .853 1.742c.25.224.548.402.885.517l5.656 1.933.876.299a34.748 34.748 0 0 1-7.039 28.657h-.006a117.303 117.303 0 0 1-4.83-.615c-.028-.005-.048-.007-.075-.013-.874-.136-1.267-.22-1.267-.22a2.585 2.585 0 0 0-1.487.243c-.148.073-.288.16-.419.26-.002 0-.004.002-.005.003a2.59 2.59 0 0 0-.655.736 2.557 2.557 0 0 0-.21.455l-.005.01c-.055.16-.096.329-.12.503l-.796 5.925-.159 1.183a34.75 34.75 0 0 1-7.236 3.047 34.74 34.74 0 0 1-12.732 1.25l2.66-10.7c10.194 1.93 17.86 1.151 21.087-8.07 2.6-7.423-.13-11.706-5.493-14.499 3.906-.9 6.849-3.47 7.634-8.777 1.084-7.25-4.437-11.148-11.985-13.748zm-15.041 15.065c3.375.84 14.244 2.41 12.489 9.455-1.686 6.754-12.09 3.322-15.465 2.481zm34.207.642c.288.005.592.052.91.15a2.794 2.794 0 0 1 1.763 3.578 2.885 2.885 0 0 1-3.63 1.775c-2.862-1.033-2.157-4.711.145-5.394.253-.075.524-.114.812-.11zm-67.455 6.008a2.84 2.84 0 0 1 2.27 1.187c2.059 3.052-2.484 6.22-4.685 3.267-.902-1.271-.586-3.033.708-3.933a2.89 2.89 0 0 1 1.707-.52zm28.77 11.31c4.052 1.012 17.048 3.015 15.117 10.757-1.847 7.424-14.348 3.411-18.4 2.405zm-5.226 20.356c1.631.442 3.215.85 4.765 1.236l-2.694 10.992a34.734 34.734 0 0 1-2.77-.87v-.003a3.618 3.618 0 0 0-.068-.256l-1.114-3.62zm34.523 3.106c1.498.063 2.953 1.177 2.727 3.128-.216 1.546-1.657 2.635-3.218 2.43a2.81 2.81 0 0 1-2.443-3.164c.205-1.25.988-1.987 1.91-2.267.33-.1.679-.141 1.024-.127zm-42.09 3.65c2.889.06 3.912 4.455.708 5.522-1.507.464-3.101-.366-3.558-1.854-.46-1.488.389-3.072 1.896-3.54.336-.095.655-.135.954-.129z" transform="translate(201.733 209.108)"/></svg>