<svg width="178" height="178" viewBox="0 0 178 178" fill="none" xmlns="http://www.w3.org/2000/svg">
<g clip-path="url(#clip0_15921_19062)">
<path d="M89.0198 0.756348C88.1835 0.756348 87.3468 1.16037 86.8474 1.96688L82.2509 9.39265C81.5278 9.45186 80.8052 9.52458 80.0871 9.60398L74.1348 3.21756C72.8412 1.8254 70.5327 2.28571 69.8721 4.06763L66.8238 12.2259C66.1175 12.4286 65.417 12.643 64.7192 12.8627L57.6501 7.77574C56.1087 6.67142 53.9429 7.56697 53.6331 9.43759L52.2313 18.0395C51.5825 18.3757 50.9411 18.7219 50.3008 19.075L42.3692 15.4597C41.5642 15.0912 40.6258 15.1671 39.8907 15.6605C39.154 16.1505 38.7229 16.9904 38.7567 17.8741L39.0607 26.6022C38.4964 27.0533 37.937 27.5147 37.3845 27.981L28.884 25.9778C28.0219 25.776 27.1166 26.0333 26.4897 26.6586C25.8624 27.2843 25.6048 28.1908 25.8089 29.0529L27.8112 37.5544C27.3454 38.1059 26.8872 38.6632 26.4362 39.2268L17.708 38.9237C15.809 38.8543 14.5016 40.8102 15.2927 42.5381L18.9081 50.4706C18.5538 51.1095 18.2096 51.7526 17.8735 52.4012L9.27347 53.801C7.39997 54.1072 6.50174 56.2762 7.61066 57.817L12.6976 64.8823C12.4762 65.5802 12.2626 66.2816 12.0598 66.9879L3.90064 70.0381C2.11824 70.6998 1.66006 73.0083 3.05441 74.3008L9.43699 80.2522C9.35751 80.9703 9.2865 81.6926 9.22567 82.4141L1.80179 87.0105C0.184721 88.0071 0.184721 90.357 1.80179 91.3535L9.22567 95.95C9.28645 96.6731 9.35762 97.3948 9.43699 98.1129L3.05441 104.065C1.66641 105.359 2.12345 107.662 3.90064 108.327L12.0598 111.376C12.2626 112.082 12.4762 112.784 12.6976 113.482L7.61066 120.55C6.49887 122.09 7.39874 124.262 9.27443 124.564L17.8735 125.963C18.2097 126.615 18.5532 127.257 18.9081 127.897L15.2927 135.827C14.9246 136.633 15.0005 137.571 15.4935 138.307C15.9869 139.046 16.8277 139.477 17.708 139.441L26.4323 139.135C26.8868 139.703 27.3448 140.259 27.8112 140.812L25.8089 149.315C25.6061 150.177 25.8612 151.078 26.4897 151.704C27.1132 152.335 28.0206 152.586 28.884 152.383L37.3845 150.381C37.937 150.851 38.4964 151.308 39.0607 151.757L38.7567 160.487C38.6872 162.385 40.6423 163.692 42.3692 162.901L50.3008 159.286C50.9394 159.641 51.5808 159.985 52.2313 160.322L53.6331 168.918C53.9408 170.79 56.1076 171.689 57.6501 170.584L64.7163 165.494C65.415 165.717 66.1172 165.93 66.8218 166.133L69.8711 174.289C70.1803 175.117 70.8962 175.729 71.7663 175.898C72.634 176.073 73.5314 175.784 74.1329 175.135L80.0842 168.752C80.8023 168.835 81.5259 168.904 82.249 168.969L86.8454 176.393C87.8454 178.004 90.1885 178.004 91.1885 176.393L95.7849 168.969C96.5067 168.906 97.2278 168.834 97.9478 168.752L103.898 175.135C104.501 175.784 105.398 176.074 106.265 175.898C107.134 175.727 107.851 175.118 108.16 174.289L111.209 166.133C111.914 165.93 112.616 165.717 113.315 165.494L120.383 170.584C121.925 171.692 124.093 170.791 124.398 168.918L125.8 160.322C126.449 159.985 127.09 159.636 127.73 159.286L135.662 162.901C137.389 163.692 139.344 162.385 139.274 160.487L138.97 151.757C139.535 151.306 140.094 150.851 140.645 150.381L149.145 152.383C150.007 152.589 150.913 152.332 151.538 151.704C152.166 151.078 152.421 150.177 152.218 149.315L150.216 140.812C150.682 140.259 151.143 139.703 151.592 139.135L160.32 139.441C161.205 139.474 162.044 139.045 162.534 138.307C163.027 137.571 163.103 136.633 162.733 135.827L159.119 127.897C159.472 127.257 159.818 126.615 160.153 125.963L168.753 124.564C170.628 124.261 171.527 122.09 170.416 120.55L165.329 113.482C165.548 112.784 165.762 112.082 165.966 111.376L174.124 108.327C174.953 108.016 175.564 107.301 175.733 106.431C175.908 105.563 175.619 104.667 174.97 104.065L168.589 98.1129C168.667 97.3948 168.738 96.6714 168.801 95.95L176.224 91.3535C177.842 90.3574 177.843 88.0075 176.226 87.0105L168.802 82.4141C168.74 81.6925 168.669 80.9723 168.591 80.2522L174.972 74.3008C175.621 73.6959 175.911 72.8001 175.735 71.9333C175.565 71.0642 174.955 70.3468 174.125 70.0381L165.968 66.9879C165.764 66.2837 165.552 65.5816 165.331 64.8823L170.417 57.817C171.529 56.2765 170.63 54.1054 168.755 53.801L160.155 52.4012C159.82 51.7523 159.475 51.1091 159.121 50.4706L162.735 42.5381C163.105 41.7329 163.029 40.7925 162.536 40.0568C162.046 39.319 161.207 38.8901 160.322 38.9237L151.594 39.2268C151.143 38.662 150.683 38.1047 150.215 37.5544L152.22 29.0529C152.658 27.2038 150.996 25.5408 149.147 25.9778L140.646 27.981C140.095 27.5132 139.536 27.0535 138.97 26.6022L139.276 17.8741C139.347 15.9751 137.391 14.668 135.664 15.4597L127.732 19.075C127.093 18.7221 126.449 18.3771 125.802 18.0395L124.4 9.43759C124.093 7.56551 121.925 6.66872 120.385 7.77574L113.314 12.8627C112.616 12.6404 111.915 12.4283 111.211 12.2259L108.162 4.06763C107.503 2.28392 105.193 1.82316 103.9 3.21756L97.9496 9.60398C97.2316 9.5246 96.5082 9.45188 95.7867 9.39265L91.1903 1.96688C90.6909 1.16037 89.8561 0.756348 89.0198 0.756348H89.0198ZM101.936 18.2824C103.677 18.2622 105.39 19.091 106.417 20.6336C108.023 23.0409 107.351 26.277 104.915 27.8663C99.0678 31.4722 93.4287 23.0116 99.099 19.141C99.9753 18.5717 100.96 18.2936 101.936 18.2824V18.2824ZM89.0131 24.882H89.0141C89.2548 24.8836 89.4954 24.8876 89.736 24.8931L84.3087 47.4678C82.1102 46.9671 79.9521 46.4721 77.8573 45.9513L77.8684 45.8997L63.9347 42.4211L61.2478 53.2117C61.2478 53.2117 68.7439 54.9296 68.5856 55.0361C72.6775 56.0576 73.4167 58.7652 73.293 60.9119L68.5799 79.8206C68.8619 79.8925 69.227 79.996 69.6298 80.1571C69.2931 80.0737 68.9339 79.9815 68.5627 79.8923L61.9554 106.38C61.4547 107.623 60.1858 109.488 57.3255 108.78C57.4262 108.926 49.982 106.947 49.982 106.947L44.9668 118.512L58.1134 121.79C60.5594 122.403 62.9568 123.044 65.3164 123.649L58.8115 145.864C56.1487 144.442 53.5635 142.858 51.1065 141.059C51.1066 141.057 51.1064 141.055 51.1065 141.053C51.1157 140.896 51.1213 140.733 51.1194 140.565L50.9473 128.038C50.9436 127.708 50.9059 127.387 50.8384 127.078C50.7712 126.769 50.6741 126.473 50.5505 126.19C50.5499 126.189 50.5493 126.187 50.5487 126.185C50.548 126.183 50.5468 126.181 50.545 126.179C50.421 125.898 50.2711 125.63 50.0975 125.38C49.9226 125.128 49.7243 124.895 49.5056 124.682C49.2869 124.469 49.0484 124.277 48.7923 124.109C48.5362 123.941 48.2627 123.797 47.9757 123.681C47.6887 123.564 47.3883 123.474 47.0769 123.415C46.7655 123.356 46.4433 123.327 46.114 123.332L35.0537 123.489L34.7124 123.495C28.2039 113.231 24.738 101.332 24.7163 89.1782C24.7367 82.5081 25.7948 75.8818 27.8527 69.5371C27.8744 69.5315 27.8625 69.5352 27.8842 69.5297C36.1327 67.4206 37.5152 67.1212 39.8615 66.5378C40.1576 66.4641 40.4441 66.3587 40.7172 66.2251C41.2636 65.9582 41.7565 65.5799 42.1697 65.1236C42.3763 64.8954 42.5632 64.6475 42.7262 64.3844C42.8892 64.1214 43.0286 63.8431 43.1412 63.5535C43.2537 63.2639 43.3393 62.9635 43.3946 62.6556C43.4498 62.3478 43.4752 62.0326 43.4663 61.7147C43.4574 61.3969 43.4143 61.0761 43.3344 60.7567L40.6475 50.0263L40.0288 47.5555C52.24 33.1778 70.1491 24.8879 89.0126 24.8813L89.0131 24.882ZM118.541 32.041C133.464 39.5836 144.958 52.1894 150.236 68.3017C149.69 69.1245 149.174 69.8348 148.702 70.5315C141.731 80.4374 141.478 80.7676 141.478 80.7676C141.288 81.0364 141.13 81.3178 141.002 81.608C140.875 81.8983 140.779 82.1975 140.712 82.5002C140.646 82.8028 140.611 83.1091 140.604 83.4153C140.599 83.7214 140.621 84.0277 140.672 84.3284C140.724 84.6292 140.805 84.9245 140.913 85.211C141.022 85.4974 141.158 85.774 141.322 86.0371C141.649 86.5634 142.085 87.0345 142.623 87.414L151.664 93.787L153.064 94.7738C151.401 113.805 141.361 131.112 125.666 142.003C125.662 142.002 125.658 141.999 125.655 141.997C121.625 140.319 119.015 139.151 117.397 138.395C117.349 138.373 117.317 138.357 117.271 138.335C115.789 137.639 115.135 137.286 115.135 137.286C114.834 137.152 114.527 137.052 114.218 136.983C113.908 136.915 113.596 136.877 113.286 136.871C112.977 136.866 112.669 136.89 112.368 136.943C112.067 136.996 111.774 137.078 111.49 137.187C111.486 137.188 111.482 137.188 111.481 137.19C111.198 137.299 110.925 137.435 110.667 137.596C110.407 137.758 110.162 137.946 109.935 138.157C109.711 138.367 109.506 138.6 109.323 138.855C109.32 138.861 109.316 138.866 109.312 138.872C109.13 139.127 108.97 139.404 108.838 139.702L104.344 149.81L103.447 151.827C98.7135 152.92 93.8713 153.473 89.0133 153.476C88.4955 153.475 87.9828 153.426 87.4662 153.413L93.5772 130.727C110.805 133.987 123.76 132.672 129.213 117.09C133.607 104.544 128.994 97.3066 119.93 92.5874C126.531 91.0652 131.503 86.7234 132.83 77.754H132.831C134.664 65.5014 125.335 58.9145 112.579 54.5205L118.541 32.041ZM107.718 32.2332L102.584 51.5654C99.9284 50.9036 97.2008 50.2784 94.4902 49.6598L97.595 35.5598C97.8155 35.6976 98.0409 35.8277 98.2786 35.927C98.5573 36.0433 98.8456 36.132 99.1402 36.1937C99.1494 36.1955 99.1568 36.1974 99.1659 36.1993C99.4605 36.2594 99.7611 36.2929 100.063 36.2968C100.369 36.3005 100.676 36.2752 100.981 36.2193H100.982C101.286 36.1634 101.587 36.0766 101.881 35.9592H101.882C102.177 35.8417 102.463 35.6927 102.738 35.5117L107.718 32.2332ZM31.2869 52.5427C33.4923 52.5371 35.555 53.902 36.3098 56.0749C38.3791 62.5653 28.6649 65.829 26.2918 59.4406C25.35 56.7139 26.8284 53.7499 29.5925 52.8238C30.1541 52.6348 30.7247 52.5442 31.2869 52.5427V52.5427ZM91.7679 61.593C97.4712 63.0145 115.839 65.6675 112.872 77.5719C110.023 88.9843 92.4407 83.1864 86.7374 81.7649L91.7679 61.593ZM154.309 76.9571C155.282 76.9534 156.317 77.2454 157.345 77.9267C159.731 79.5864 160.301 82.8421 158.616 85.1947C156.934 87.5511 153.635 88.1172 151.245 86.4607C146.701 83.138 149.865 76.9726 154.309 76.9571V76.9571ZM84.1997 91.9454C91.0483 93.6547 113.009 97.0393 109.746 110.124C106.624 122.67 85.5004 115.887 78.6518 114.186L84.1997 91.9454ZM75.3683 126.344C78.125 127.093 80.8009 127.782 83.4194 128.433L76.99 152.279C74.0827 151.722 71.2173 150.988 68.4196 150.038L75.3683 126.344ZM39.5331 129.054C46.4274 129.118 46.5702 139.244 39.6804 139.497C36.7616 139.538 34.363 137.235 34.3247 134.354C34.2823 131.472 36.6127 129.101 39.5331 129.054H39.5331ZM116.05 144.416C119.454 144.384 122.893 147.574 121.15 151.695C119.964 154.327 116.838 155.511 114.172 154.338C111.503 153.167 110.299 150.084 111.481 147.448C112.495 145.334 114.268 144.433 116.05 144.416Z" fill="#008DE4"/>
<path d="M69.7587 158.813C79.3249 161.376 88.8016 161.968 98.1887 160.59C107.576 159.212 116.347 156.154 124.504 151.417C132.66 146.681 139.695 140.593 145.61 133.155C151.526 125.716 155.758 117.24 158.307 107.726C160.857 98.2111 161.43 88.7541 160.026 79.3546C158.623 69.9551 155.559 61.1615 150.835 52.9738C146.111 44.786 140.029 37.7485 132.589 31.8613C125.149 25.974 116.645 21.7487 107.079 19.1855C97.5704 16.6377 88.1226 16.053 78.7355 17.4314C69.3484 18.8097 60.5912 21.871 52.4639 26.6154C44.3367 31.3597 37.3155 37.451 31.4003 44.8894C25.4851 52.3279 21.2528 60.8044 18.7034 70.3188C16.154 79.8333 15.5811 89.2903 16.9846 98.6897C18.3881 108.089 21.4374 116.879 26.1323 125.059C30.8274 133.239 36.8951 140.273 44.3354 146.16C51.7757 152.047 60.2501 156.265 69.7587 158.813Z" fill="#008DE4"/>
<path fill-rule="evenodd" clip-rule="evenodd" d="M80.0768 50.2549L110.61 58.4364C137.44 65.6253 138.279 81.5156 128.912 101.055C122.657 114.187 113.42 123.031 101.381 125.117C95.9721 126.082 91.0317 126.099 80.3199 123.229L49.8865 115.074L56.2349 101.593L83.0144 108.768C99.1187 113.137 105.251 107.269 108.99 101.726C110.407 99.638 114.101 93.063 115.277 88.8718C117.564 80.7397 114.874 74.7613 101.309 71.1266L73.7918 63.6998L80.0768 50.2549ZM47.6469 79.2857C49.2462 76.3248 51.823 71.5546 59.746 73.6776L90.9804 82.0468C90.9804 82.0468 90.224 83.6682 88.1231 87.5044C88.106 87.536 88.0889 87.5679 88.0716 87.5999C86.4722 90.5608 83.8955 95.331 75.9724 93.208L44.7381 84.8388C44.7381 84.8388 45.4944 83.2174 47.5953 79.3811C47.6124 79.3495 47.6296 79.3177 47.6469 79.2857Z" fill="white"/>
</g>
<defs>
<clipPath id="clip0_15921_19062">
<rect width="177.52" height="178" fill="white"/>
</clipPath>
</defs>
</svg>
